<?xml version="1.0" standalone="no"?>
<!DOCTYPE svg PUBLIC "-//W3C//DTD SVG 20010904//EN"
 "http://www.w3.org/TR/2001/REC-SVG-20010904/DTD/svg10.dtd">
<svg version="1.0" xmlns="http://www.w3.org/2000/svg"
 width="72.000000pt" height="72.000000pt" viewBox="0 0 72.000000 72.000000"
 preserveAspectRatio="xMidYMid meet">
<metadata>
Created by potrace 1.14, written by Peter Selinger 2001-2017
</metadata>
<g transform="translate(0.000000,72.000000) scale(0.100000,-0.100000)"
fill="#000000" stroke="none">
<path d="M305 690 c-13 -6 -15 -9 -5 -9 8 0 22 4 30 9 18 12 2 12 -25 0z"/>
<path d="M260 676 c0 -8 5 -18 10 -21 6 -3 10 1 10 9 0 8 -4 18 -10 21 -5 3
-10 -1 -10 -9z"/>
<path d="M155 651 c-6 -11 63 -36 73 -26 9 9 -27 35 -49 35 -10 0 -20 -4 -24
-9z"/>
<path d="M335 620 c3 -6 -1 -7 -11 -3 -12 4 -15 2 -12 -8 3 -8 11 -14 19 -14
8 0 29 -10 48 -22 36 -23 49 -24 35 -1 -16 25 -12 50 8 45 10 -3 16 -2 13 2
-2 4 -27 8 -55 9 -29 0 -48 -3 -45 -8z"/>
<path d="M477 600 c25 -23 72 -44 90 -41 7 1 28 -5 48 -13 19 -8 35 -11 35 -7
0 18 -82 82 -97 77 -8 -3 -18 -6 -21 -6 -4 0 0 -5 8 -10 24 -16 -6 -12 -48 6
l-37 15 22 -21z"/>
<path d="M92 559 c-32 -39 -42 -60 -42 -87 0 -35 0 -35 20 -17 23 21 65 32 54
14 -5 -8 -1 -8 14 0 27 14 36 30 38 64 1 23 -2 27 -17 22 -13 -4 -19 -1 -19 8
0 10 7 14 23 11 12 -2 16 -2 10 2 -7 3 -13 12 -13 20 0 28 -27 13 -68 -37z
m67 -42 c-2 -1 -13 -9 -24 -17 -19 -14 -19 -14 -6 3 7 9 18 17 24 17 6 0 8 -1
6 -3z"/>
<path d="M296 581 c-4 -6 0 -21 8 -33 15 -21 16 -21 16 -3 0 28 -16 50 -24 36z"/>
<path d="M431 585 c1 -19 18 -51 18 -35 0 8 -4 22 -9 30 -5 8 -9 11 -9 5z"/>
<path d="M450 585 c0 -20 28 -56 52 -66 31 -13 54 -37 23 -25 -16 6 -16 4 -4
-10 8 -10 15 -12 17 -5 2 6 8 8 14 5 22 -14 -23 55 -52 80 -29 24 -50 33 -50
21z"/>
<path d="M568 538 c18 -18 15 -33 -4 -18 -13 12 -14 10 -3 -13 7 -15 28 -36
47 -47 l34 -20 -22 35 c-12 20 -20 38 -17 41 3 3 8 -4 12 -15 3 -12 12 -18 20
-15 15 6 16 2 15 -98 0 -74 12 -95 29 -46 26 73 0 148 -63 188 -38 23 -68 28
-48 8z"/>
<path d="M224 514 c-18 -14 -18 -15 4 -4 12 6 22 13 22 15 0 8 -5 6 -26 -11z"/>
<path d="M78 431 c-3 -18 0 -30 5 -28 13 4 17 31 7 47 -5 7 -9 0 -12 -19z"/>
<path d="M118 433 c7 -3 16 -2 19 1 4 3 -2 6 -13 5 -11 0 -14 -3 -6 -6z"/>
<path d="M180 370 l0 -60 30 0 c34 0 40 15 10 23 -23 6 -27 27 -5 27 8 0 15 5
15 10 0 6 -7 10 -15 10 -8 0 -15 7 -15 15 0 8 9 15 20 15 11 0 20 5 20 10 0 6
-13 10 -30 10 l-30 0 0 -60z"/>
<path d="M270 369 l0 -61 33 6 c79 15 74 116 -6 116 -26 0 -27 -2 -27 -61z
m48 32 c19 -12 11 -55 -10 -59 -15 -3 -18 4 -18 32 0 37 5 42 28 27z"/>
<path d="M380 370 l0 -60 30 0 c17 0 30 5 30 10 0 6 -7 10 -15 10 -8 0 -15 7
-15 15 0 8 7 15 15 15 8 0 15 5 15 10 0 6 -7 10 -15 10 -8 0 -15 7 -15 15 0 8
7 15 15 15 8 0 15 5 15 10 0 6 -13 10 -30 10 l-30 0 0 -60z"/>
<path d="M470 370 c0 -33 4 -60 10 -60 6 0 10 10 11 23 l0 22 16 -22 c26 -39
43 -29 43 25 0 26 -5 54 -10 62 -7 12 -10 8 -10 -15 l-1 -30 -17 28 c-28 45
-42 34 -42 -33z"/>
<path d="M18 391 c-5 -35 7 -66 14 -35 3 14 13 3 36 -41 17 -33 31 -54 32 -47
0 19 -25 76 -53 117 l-25 36 -4 -30z"/>
<path d="M590 377 c0 -40 35 -126 43 -105 4 10 6 10 6 0 1 -7 -4 -22 -10 -33
-7 -15 -7 -24 1 -34 6 -7 10 -21 8 -31 -2 -9 2 -19 8 -21 6 -2 10 12 10 32 0
20 -3 30 -8 22 -19 -29 -6 12 16 49 13 22 26 54 29 70 l6 29 -14 -32 c-20 -44
-33 -49 -41 -16 -9 45 -25 81 -40 94 -12 9 -14 5 -14 -24z"/>
<path d="M24 313 c2 -9 8 -18 15 -19 6 -1 7 0 1 3 -5 2 -8 9 -5 13 3 5 1 11
-4 14 -5 4 -8 -2 -7 -11z"/>
<path d="M37 256 c3 -16 12 -24 26 -24 12 0 40 -16 62 -37 36 -34 37 -37 15
-32 -14 3 -41 8 -60 12 l-35 6 34 -30 c18 -16 41 -30 50 -30 9 0 30 -3 46 -7
29 -6 29 -6 10 9 -20 16 -20 16 2 10 12 -3 28 -11 34 -19 13 -16 39 -19 39 -3
0 5 -15 16 -34 24 -19 8 -44 30 -56 50 -14 22 -39 43 -70 57 -31 14 -45 25
-37 30 8 5 4 8 -9 8 -17 0 -20 -5 -17 -24z"/>
<path d="M591 249 c-14 -40 -14 -39 3 -33 17 7 26 37 16 54 -5 8 -11 0 -19
-21z"/>
<path d="M670 250 c-6 -11 -8 -20 -6 -20 3 0 10 9 16 20 6 11 8 20 6 20 -3 0
-10 -9 -16 -20z"/>
<path d="M490 225 c0 -8 9 -19 19 -25 26 -13 40 -13 21 1 -11 8 -12 12 -2 16
17 7 5 23 -19 23 -10 0 -19 -7 -19 -15z"/>
<path d="M175 220 c-4 -6 -3 -16 3 -22 13 -13 23 4 13 21 -7 10 -10 10 -16 1z"/>
<path d="M236 193 c11 -46 33 -83 50 -83 22 0 9 36 -28 78 l-29 34 7 -29z"/>
<path d="M440 169 c-14 -6 -38 -8 -55 -5 -27 4 -26 3 10 -14 35 -16 42 -17 56
-4 8 8 21 14 27 14 6 0 14 5 17 10 8 13 -22 12 -55 -1z"/>
<path d="M474 145 c-18 -14 -18 -14 7 -15 15 0 32 7 39 15 10 12 9 15 -7 15
-10 0 -28 -7 -39 -15z"/>
<path d="M560 103 c0 -28 3 -34 10 -23 13 20 13 60 0 60 -5 0 -10 -17 -10 -37z"/>
<path d="M352 119 c2 -6 18 -17 36 -25 18 -7 30 -9 27 -4 -8 14 -67 40 -63 29z"/>
<path d="M590 115 c0 -8 2 -15 4 -15 2 0 6 7 10 15 3 8 1 15 -4 15 -6 0 -10
-7 -10 -15z"/>
<path d="M168 93 c6 -2 18 -2 25 0 6 3 1 5 -13 5 -14 0 -19 -2 -12 -5z"/>
<path d="M465 93 c-11 -3 -24 -9 -30 -15 -6 -6 -3 -7 10 -3 17 5 -63 -38 -90
-48 -5 -3 -7 -7 -4 -10 3 -4 32 -2 64 3 43 7 65 16 77 32 31 41 23 53 -27 41z"/>
<path d="M202 70 c3 -10 19 -16 49 -17 62 -2 68 -4 39 -13 -22 -7 -20 -8 15
-9 29 0 36 2 25 9 -12 8 -12 10 5 11 14 0 12 3 -10 10 -41 14 -95 18 -89 7 8
-13 -10 -10 -25 5 -11 10 -13 9 -9 -3z"/>
</g>
</svg>
